<svg width="255" height="199" viewBox="0 0 255 199" fill="none" xmlns="http://www.w3.org/2000/svg">
<g clip-path="url(#clip0_5_99)">
<g clip-path="url(#clip1_5_99)">
<g clip-path="url(#clip2_5_99)">
<path d="M114.926 78.2768L113.793 86.3307H135.609L137.571 72.304L131.939 69.3261L114.926 78.2768ZM126.476 14.5053L121.115 0.00486755H95.7647L109.277 31.0023L119.035 29.581L126.476 14.5053ZM155.548 31.1546L177.905 0.00486755H152.318L139.701 19.1583L144.843 29.581L155.548 31.1546Z" fill="#006876"/>
<path d="M122.705 33.4557L128.861 20.9857L126.476 14.5053L119.035 29.581L109.277 31.0023L111.07 35.1477L122.705 33.4557ZM131.939 61.8644L116.042 70.2229L114.926 78.2768L131.939 69.3261L137.571 72.304L138.551 65.3499L131.939 61.8644ZM141.156 33.4557L152.69 35.1308L155.548 31.1546L144.843 29.581L139.701 19.1583L136.505 24.0143L141.156 33.4557Z" fill="white"/>
<path d="M136.505 24.0144L132.328 30.3594L128.861 20.9857L122.705 33.4557L111.07 35.1477L118.545 52.3046L116.042 70.2229L131.939 61.8644L138.551 65.3499L140.361 52.3046L152.69 35.1308L141.156 33.4557L136.505 24.0144Z" fill="#1A1A1A"/>
</g>
</g>
<path d="M31.7625 198.995V173.615L47.8963 118.49H31.9654L24.1522 145.291L16.339 118.49H0.509567L16.5419 173.615V198.995H31.7625ZM90.4125 198.995H106.039L90.1081 118.591H73.9743L58.0434 198.995H73.4669L74.5831 193.412H89.3978L90.4125 198.995ZM86.3537 178.285H77.6272L81.9904 156.255L86.3537 178.285ZM156.571 133.819V118.591H116.186V198.995H131.407V166.407H143.887V151.179H131.407V133.819H156.571ZM210.249 133.819V118.591H166.718V133.819H180.924V198.995H196.145V133.819H210.249ZM238.864 198.995H254.49L238.56 118.591H222.426L206.495 198.995H221.918L223.035 193.412H237.849L238.864 198.995ZM234.805 178.285H226.079L230.442 156.255L234.805 178.285Z" fill="#1A1A1A"/>
</g>
<defs>
<clipPath id="clip0_5_99">
<rect width="255" height="199" fill="white"/>
</clipPath>
<clipPath id="clip1_5_99">
<rect width="83" height="87" fill="white" transform="translate(95 -1.52588e-05)"/>
</clipPath>
<clipPath id="clip2_5_99">
<rect width="82.1404" height="86.3258" fill="white" transform="translate(95.7647 0.00486755)"/>
</clipPath>
</defs>
</svg>
