<svg width="300" height="300" viewBox="0 0 198 80" fill="none" xmlns="http://www.w3.org/2000/svg">
  <g clip-path="url(#clip0_5_117)">
    <g clip-path="url(#clip1_5_117)">
      <path d="M18.3893 72.4307L17.3018 79.8836H38.2393L40.1221 66.9037L34.7173 64.148L18.3893 72.4307ZM29.4748 13.4183L24.3297 0H0L12.9683 28.6842L22.3333 27.369L29.4748 13.4183ZM57.3752 28.8251L78.8321 0H54.2752L42.1671 17.7241L47.1012 27.369L57.3752 28.8251Z" fill="#006876"/>
      <path d="M25.8554 30.9545L31.7633 19.4151L29.4748 13.4183L22.3333 27.369L12.9683 28.6842L14.6887 32.5202L25.8554 30.9545ZM34.7173 57.2431L19.4605 64.9779L18.3893 72.4307L34.7173 64.148L40.1221 66.9037L41.0634 60.4686L34.7173 57.2431ZM43.563 30.9545L54.6322 32.5046L57.3752 28.8251L47.1012 27.369L42.1671 17.7241L39.0995 22.2177L43.563 30.9545Z" fill="white"/>
      <path d="M39.0995 22.2177L35.0906 28.0892L31.7633 19.4151L25.8553 30.9545L14.6887 32.5203L21.8626 48.3968L19.4605 64.9779L34.7173 57.2432L41.0634 60.4686L42.8001 48.3968L54.6322 32.5046L43.5629 30.9545L39.0995 22.2177Z" fill="#1A1A1A"/>
    </g>
  </g>
  <g clip-path="url(#clip2_5_117)">
    <path d="M48.6745 79.7787V62.9037L59.417 26.2512H48.8096L43.6073 44.0712L38.4049 26.2512H27.8651L38.54 62.9037V79.7787H48.6745ZM87.7259 79.7787H98.1306L87.5232 26.3187H76.7807L66.1733 79.7787H76.4429L77.1861 76.0662H87.0503L87.7259 79.7787ZM85.0234 66.0087H79.213L82.1182 51.3612L85.0234 66.0087ZM131.777 36.4437V26.3187H104.887V79.7787H115.021V58.1112H123.332V47.9862H115.021V36.4437H131.777ZM167.518 36.4437V26.3187H138.533V36.4437H147.992V79.7787H158.127V36.4437H167.518ZM186.571 79.7787H196.975L186.368 26.3187H175.625L165.018 79.7787H175.288L176.031 76.0662H185.895L186.571 79.7787ZM183.868 66.0087H178.058L180.963 51.3612L183.868 66.0087Z" fill="#1A1A1A"/>
  </g>
  <defs>
    <clipPath id="clip0_5_117">
      <rect width="79" height="80" fill="white"/>
    </clipPath>
    <clipPath id="clip1_5_117">
      <rect width="78.8321" height="79.8836" fill="white"/>
    </clipPath>
    <clipPath id="clip2_5_117">
      <rect width="134" height="54" fill="white" transform="translate(64 26)"/>
    </clipPath>
  </defs>
</svg>
