<svg width="126" height="132" viewBox="0 0 126 132" fill="none" xmlns="http://www.w3.org/2000/svg">
<g clip-path="url(#clip0_5_91)">
<g clip-path="url(#clip1_5_91)">
<path d="M29.3297 119.511L27.5953 131.808H60.9893L63.9921 110.391L55.3718 105.844L29.3297 119.511ZM47.0104 22.1402L38.8043 0H0L20.6835 47.3289L35.6202 45.1588L47.0104 22.1402ZM91.5098 47.5614L125.732 0H86.5654L67.2539 29.2447L75.1235 45.1588L91.5098 47.5614Z" fill="#006876"/>
<path d="M41.2376 51.0749L50.6604 32.0349L47.0104 22.1402L35.6202 45.1588L20.6835 47.3289L23.4275 53.6584L41.2376 51.0749ZM55.3718 94.4512L31.0382 107.213L29.3297 119.511L55.3718 105.844L63.9921 110.391L65.4936 99.7731L55.3718 94.4512ZM69.4801 51.0749L87.1349 53.6326L91.5098 47.5614L75.1235 45.1588L67.2539 29.2447L62.3613 36.6593L69.4801 51.0749Z" fill="white"/>
<path d="M62.3613 36.6593L55.9673 46.3472L50.6605 32.0349L41.2377 51.0749L23.4276 53.6584L34.8695 79.8547L31.0383 107.213L55.3719 94.4512L65.4936 99.7731L68.2635 79.8547L87.135 53.6326L69.4802 51.0749L62.3613 36.6593Z" fill="#1A1A1A"/>
</g>
</g>
<defs>
<clipPath id="clip0_5_91">
<rect width="126" height="132" fill="white"/>
</clipPath>
<clipPath id="clip1_5_91">
<rect width="125.732" height="131.808" fill="white"/>
</clipPath>
</defs>
</svg>
